<svg width="26" height="29" viewBox="0 0 26 29" fill="none" xmlns="http://www.w3.org/2000/svg">
<path d="M11.7053 2.00206C12.1014 1.78211 12.547 1.66669 13 1.66669C13.453 1.66669 13.8986 1.78211 14.2947 2.00206L24.3147 7.56739C24.5224 7.68291 24.6955 7.85186 24.816 8.05676C24.9365 8.26165 25 8.49502 25 8.73272V19.7127C24.9999 20.1882 24.8726 20.6551 24.6314 21.0649C24.3902 21.4747 24.0437 21.8125 23.628 22.0434L14.2947 27.2301C13.8986 27.45 13.453 27.5654 13 27.5654C12.547 27.5654 12.1014 27.45 11.7053 27.2301L2.372 22.0434C1.95647 21.8126 1.61018 21.475 1.36895 21.0655C1.12773 20.6559 1.00035 20.1894 1 19.7141V8.73272C0.99999 8.49502 1.06352 8.26165 1.18402 8.05676C1.30452 7.85186 1.4776 7.68291 1.68533 7.56739L11.7067 2.00206H11.7053Z" stroke="#030085" stroke-width="2" stroke-linecap="round" stroke-linejoin="round"/>
<path d="M13 14.6154V27.9487M1 7.94873L13 14.6154L1 7.94873ZM13 14.6154L25 7.94873L13 14.6154Z" stroke="#030085" stroke-width="2" stroke-linejoin="round"/>
<path d="M5 15.0528L9 17.2821M7 11.2821L19 4.61542L7 11.2821Z" stroke="#030085" stroke-width="2" stroke-linecap="round" stroke-linejoin="round"/>
</svg>
