<svg width="28" height="28" viewBox="0 0 28 28" fill="none" xmlns="http://www.w3.org/2000/svg">
<path d="M27.3333 5.81335L21.2 0.666687L19.48 2.70669L25.6133 7.85335L27.3333 5.81335ZM8.50666 2.70669L6.8 0.666687L0.666664 5.80002L2.38666 7.84002L8.50666 2.70669ZM14 3.52002C7.37333 3.52002 2 8.89335 2 15.52C2 22.1467 7.36 27.52 14 27.52C17.1826 27.52 20.2348 26.2557 22.4853 24.0053C24.7357 21.7549 26 18.7026 26 15.52C26 12.3374 24.7357 9.28518 22.4853 7.03474C20.2348 4.7843 17.1826 3.52002 14 3.52002ZM14 24.8534C8.84 24.8534 4.66666 20.68 4.66666 15.52C4.66666 10.36 8.84 6.18669 14 6.18669C19.16 6.18669 23.3333 10.36 23.3333 15.52C23.3333 20.68 19.16 24.8534 14 24.8534ZM12.0533 17.56L9.21333 14.72L7.8 16.1334L12.04 20.3734L20.04 12.3734L18.6267 10.96L12.0533 17.56Z" fill="#030085"/>
</svg>
