<svg width="46" height="49" viewBox="0 0 46 49" fill="none" xmlns="http://www.w3.org/2000/svg">
<path fill-rule="evenodd" clip-rule="evenodd" d="M7.26198 33.009V48.8533H31.0285V39.9739H36.0656C36.0656 39.9739 37.9828 40.0993 38.2905 39.9739L33.9227 36.9542H27.7566V45.5524H10.4427V31.2952L9.70333 30.5281C7.53794 28.2768 3.3009 23.0152 3.3009 16.4715C3.3009 14.3193 4.11292 11.0224 6.55691 8.29846C8.71306 5.89409 11.6333 3.6772 17.6594 3.31014V11.8832C16.6175 12.0807 15.7731 12.5774 14.9172 13.2036C14.0613 13.8298 13.2581 15.1841 12.5636 16.4715C12.0601 17.4048 11.9366 18.6142 11.8832 19.6734C11.8299 20.7325 12.1565 21.8689 12.5636 22.8482C12.9708 23.8274 13.7354 25.0379 14.524 25.747C15.3126 26.4561 16.6426 27.1147 17.6594 27.416C18.6763 27.7172 20.3478 27.5811 21.3953 27.416C22.4429 27.2508 22.9504 27.106 23.8252 26.5065L41.683 39.9739C41.5685 40.634 42.9117 39.6108 42.9117 40.9312C43.5719 42.2515 43.0066 40.9312 44.2321 42.2515C45.5557 42.9117 44.2462 41.7688 44.8923 41.5914C46.2126 41.5914 44.4962 42.7919 44.8923 42.2515C45.5524 40.9312 44.9175 41.6006 44.8923 40.9312C44.867 40.2617 46.5563 40.7838 45.5524 39.6108C45.1168 39.1018 44.8923 38.9506 44.8923 38.9506C44.8923 38.9506 44.8271 37.3224 44.2321 37.6303L26.7737 23.8211C27.4347 22.8415 27.6397 21.6415 27.7566 20.4656C27.8735 19.2897 27.5226 17.595 27.0674 16.5045C26.6122 15.414 26.0051 14.6076 25.0868 13.8638C24.1686 13.1199 22.9472 12.1022 21.7859 11.8832V3.3009C25.1436 3.36296 26.6818 3.82244 28.4419 4.48262C30.3062 5.18241 31.6887 6.17136 33.0816 7.46268L33.2691 7.63696C34.6344 8.90187 35.041 9.27949 35.2721 9.89478L40.8612 24.7752H36.0656V28.5884L39.6108 31.0285V27.416L41.683 27.8479C42.1097 27.8485 42.5302 27.7455 42.9084 27.5479C43.2867 27.3502 43.6113 27.0638 43.8545 26.7131C44.0976 26.3624 44.2521 25.958 44.3046 25.5345C44.3571 25.111 44.3061 24.681 44.156 24.2816L38.2905 8.58234C37.8296 7.35441 36.7866 6.43511 35.6643 5.40522C35.5332 5.28495 35.4025 5.16436 35.2721 5.04345C32.1495 2.14658 28.4683 0 20.4656 0C4.8959 0 0 11.086 0 16.4995C0 24.114 4.98172 30.6429 7.26198 33.009ZM19.6773 24.1626C20.2669 24.1627 20.8506 24.0466 21.3953 23.8211C21.94 23.5956 22.435 23.265 22.8519 22.8482C23.2688 22.4314 23.5996 21.9366 23.8252 21.3919C24.0509 20.8473 24.1671 20.2636 24.1672 19.674C24.1673 19.0845 24.0513 18.5007 23.8257 17.956C23.6002 17.4113 23.2696 16.9164 22.8528 16.4995C22.436 16.0826 21.9412 15.7518 21.3966 15.5261C20.8519 15.3004 20.2682 15.1842 19.6786 15.1841C18.488 15.1841 17.3462 15.6571 16.5043 16.499C15.6624 17.3409 15.1894 18.4828 15.1894 19.6734C15.1894 20.864 15.6624 22.0058 16.5043 22.8477C17.3462 23.6896 18.4867 24.1626 19.6773 24.1626Z" fill="#030085"/>
</svg>
