<svg width="60" height="60" viewBox="0 0 60 60" fill="none" xmlns="http://www.w3.org/2000/svg">
<path fill-rule="evenodd" clip-rule="evenodd" d="M39.6771 25.8878C39.8322 26.0367 39.9554 26.2136 40.0394 26.4085C40.1233 26.6033 40.1666 26.8121 40.1666 27.023C40.1666 27.2339 40.1233 27.4427 40.0394 27.6376C39.9554 27.8324 39.8322 28.0093 39.6771 28.1582L29.6798 37.7789C29.5251 37.9283 29.3412 38.0467 29.1388 38.1276C28.9363 38.2084 28.7193 38.25 28.5002 38.25C28.281 38.25 28.064 38.2084 27.8616 38.1276C27.6591 38.0467 27.4753 37.9283 27.3205 37.7789L22.3219 32.9686C22.167 32.8195 22.0441 32.6425 21.9602 32.4477C21.8764 32.253 21.8333 32.0442 21.8333 31.8334C21.8333 31.6225 21.8764 31.4137 21.9602 31.219C22.0441 31.0242 22.167 30.8472 22.3219 30.6981C22.6348 30.397 23.0591 30.2279 23.5016 30.2279C23.7206 30.2279 23.9376 30.2694 24.14 30.3501C24.3424 30.4308 24.5263 30.549 24.6812 30.6981L28.5002 34.3764L37.3177 25.8878C37.4725 25.7384 37.6564 25.62 37.8588 25.5391C38.0612 25.4583 38.2782 25.4167 38.4974 25.4167C38.7166 25.4167 38.9336 25.4583 39.136 25.5391C39.3384 25.62 39.5223 25.7384 39.6771 25.8878Z" fill="#030085"/>
<path d="M19.9999 12.125H17.2499C15.7912 12.125 13.4756 12.7045 12.4442 13.7359C11.4127 14.7674 10.8333 16.1663 10.8333 17.625V46.5C10.8333 47.9587 11.4127 49.3576 12.4442 50.3891C13.4756 51.4205 15.7912 52 17.2499 52H44.7499C46.2086 52 48.5242 51.4205 49.5557 50.3891C50.5871 49.3576 51.1666 47.9587 51.1666 46.5V17.625C51.1666 16.1663 50.5871 14.7674 49.5557 13.7359C48.5242 12.7045 46.2086 12.125 44.7499 12.125H41.9999V15.7917H44.7499C45.4793 15.7917 46.1787 16.0814 46.6945 16.5971C47.2102 17.1128 47.4999 17.8123 47.4999 18.5417V45.5833C47.4999 46.3127 47.2102 47.0121 46.6945 47.5279C46.1787 48.0436 45.4793 48.3333 44.7499 48.3333H17.2499C16.5206 48.3333 15.8211 48.0436 15.3054 47.5279C14.7896 47.0121 14.4999 46.3127 14.4999 45.5833V18.5417C14.4999 17.8123 14.7896 17.1128 15.3054 16.5971C15.8211 16.0814 16.5206 15.7917 17.2499 15.7917H19.9999V12.125Z" fill="#030085"/>
<path d="M34.125 10.75C34.4897 10.75 34.8394 10.8949 35.0973 11.1527C35.3551 11.4106 35.5 11.7603 35.5 12.125V14.875C35.5 15.2397 35.3551 15.5894 35.0973 15.8473C34.8394 16.1051 34.4897 16.25 34.125 16.25H27.875C27.5103 16.25 27.1606 16.1051 26.9027 15.8473C26.6449 15.5894 26.5 15.2397 26.5 14.875V12.125C26.5 11.7603 26.6449 11.4106 26.9027 11.1527C27.1606 10.8949 27.5103 10.75 27.875 10.75H34.125ZM26.875 8C25.781 8 24.7318 8.4346 23.9582 9.20818C23.1846 9.98177 22.75 11.031 22.75 12.125V14.875C22.75 15.969 23.1846 17.0182 23.9582 17.7918C24.7318 18.5654 25.781 19 26.875 19H35.125C36.219 19 37.2682 18.5654 38.0418 17.7918C38.8154 17.0182 39.25 15.969 39.25 14.875V12.125C39.25 11.031 38.8154 9.98177 38.0418 9.20818C37.2682 8.4346 36.219 8 35.125 8H26.875Z" fill="#030085"/>
</svg>
