<svg width="38" height="47" viewBox="0 0 38 47" fill="none" xmlns="http://www.w3.org/2000/svg">
<path d="M37.2344 6.0225L19.7806 0.107271C19.57 0.0357569 19.2875 0 19.005 0C18.7225 0 18.44 0.0357569 18.2294 0.107271L0.775611 6.0225C0.349282 6.16552 0 6.65591 0 7.10542V31.7471C0 32.1966 0.29278 32.7892 0.647199 33.0701L18.3527 46.7906C18.5325 46.9285 18.7636 47 18.9999 47C19.2362 47 19.4724 46.9285 19.6471 46.7906L37.3526 33.0701C37.707 32.7943 37.9998 32.2017 37.9998 31.7471V7.10542C38.0101 6.65591 37.6608 6.17063 37.2344 6.0225ZM34.3118 30.7663L19.005 42.6274L3.69828 30.7663V8.92392L19.005 3.73405L34.3118 8.92392V30.7663ZM13.4011 24.3556L9.42033 28.3144C9.34386 28.3912 9.30096 28.4949 9.30096 28.603C9.30096 28.7111 9.34386 28.8148 9.42033 28.8916L11.1667 30.6284C11.326 30.7868 11.5879 30.7868 11.7472 30.6284L15.7279 26.6696C18.589 28.4626 22.4105 28.1203 24.9017 25.6429C27.7936 22.767 27.7936 18.1084 24.9017 15.2325C22.0099 12.3566 17.3254 12.3566 14.4335 15.2325C11.9423 17.7099 11.5982 21.5155 13.4011 24.3556ZM16.7604 17.5465C18.3681 15.9476 20.9723 15.9476 22.5749 17.5465C24.1826 19.1453 24.1826 21.7351 22.5749 23.3289C20.9672 24.9277 18.363 24.9277 16.7604 23.3289C15.1578 21.73 15.1527 19.1453 16.7604 17.5465Z" fill="#030085"/>
</svg>
