<svg width="60" height="60" viewBox="0 0 60 60" fill="none" xmlns="http://www.w3.org/2000/svg">
<path d="M44.3409 24.0402C44.3409 20.0442 42.877 16.8256 40 14C37.123 11.1744 34.0687 9.97321 30 9.97321C25.9313 9.97321 22.877 11.1744 20 14C17.123 16.8256 15.6591 20.0442 15.6591 24.0402C15.6591 30.221 19.6943 37.3504 30 47C40.3057 37.3504 44.3409 30.221 44.3409 24.0402ZM30 52.5C17.4989 41.3404 11.25 31.8516 11.25 24.0402C11.25 19.1562 13.2254 14.4722 16.7417 11.0187C20.2581 7.56517 25.0272 5.625 30 5.625C34.9728 5.625 39.7419 7.56517 43.2583 11.0187C46.7746 14.4722 48.75 19.1562 48.75 24.0402C48.75 31.8516 42.5011 41.3404 30 52.5Z" fill="#030085"/>
<path d="M30.0625 25.2273C30.9505 25.2273 31.8021 24.8681 32.43 24.2288C33.058 23.5894 33.4107 22.7223 33.4107 21.8182C33.4107 20.914 33.058 20.0469 32.43 19.4076C31.8021 18.7683 30.9505 18.4091 30.0625 18.4091C29.1745 18.4091 28.3229 18.7683 27.695 19.4076C27.067 20.0469 26.7143 20.914 26.7143 21.8182C26.7143 22.7223 27.067 23.5894 27.695 24.2288C28.3229 24.8681 29.1745 25.2273 30.0625 25.2273ZM30.0625 28.6364C28.2865 28.6364 26.5832 27.918 25.3274 26.6394C24.0716 25.3607 23.3661 23.6265 23.3661 21.8182C23.3661 20.0099 24.0716 18.2757 25.3274 16.997C26.5832 15.7183 28.2865 15 30.0625 15C31.8385 15 33.5418 15.7183 34.7976 16.997C36.0534 18.2757 36.7589 20.0099 36.7589 21.8182C36.7589 23.6265 36.0534 25.3607 34.7976 26.6394C33.5418 27.918 31.8385 28.6364 30.0625 28.6364ZM49 38.8636L55 53H38.433V49.0909H21.692V53H5L11 38.8636H49ZM44.5368 38.8636H15.5882L11.5703 49.0909H48.5547L44.5368 38.8636Z" fill="#030085"/>
</svg>
