<svg width="40" height="50" viewBox="0 0 40 50" fill="none" xmlns="http://www.w3.org/2000/svg">
<path d="M14.2837 31.9167V23.3333C14.2837 22.8913 14.1066 22.4674 13.7915 22.1548C13.4764 21.8423 13.0489 21.6667 12.6033 21.6667C12.1576 21.6667 11.7302 21.8423 11.415 22.1548C11.0999 22.4674 10.9228 22.8913 10.9228 23.3333V31.9167C9.569 32.317 8.40566 33.1873 7.64558 34.3684C6.8855 35.5495 6.57945 36.9625 6.78341 38.349C6.98737 39.7355 7.6877 41.0029 8.75634 41.9193C9.82498 42.8358 11.1905 43.3402 12.6033 43.3402C14.016 43.3402 15.3816 42.8358 16.4502 41.9193C17.5188 41.0029 18.2192 39.7355 18.4231 38.349C18.6271 36.9625 18.321 35.5495 17.561 34.3684C16.8009 33.1873 15.6375 32.317 14.2837 31.9167ZM12.6033 40C12.1047 40 11.6174 39.8534 11.2029 39.5787C10.7884 39.304 10.4653 38.9135 10.2745 38.4567C10.0837 37.9999 10.0338 37.4972 10.1311 37.0123C10.2283 36.5273 10.4684 36.0819 10.8209 35.7322C11.1734 35.3826 11.6226 35.1445 12.1115 35.048C12.6005 34.9516 13.1073 35.0011 13.5679 35.1903C14.0285 35.3795 14.4221 35.7 14.6991 36.1111C14.9761 36.5222 15.1239 37.0055 15.1239 37.5C15.1239 38.163 14.8583 38.7989 14.3856 39.2678C13.9129 39.7366 13.2718 40 12.6033 40ZM38.8389 14.5208L34.6378 15.875L37.2425 19.4167C37.3727 19.5943 37.4662 19.7957 37.5177 20.0093C37.5692 20.2229 37.5776 20.4445 37.5425 20.6613C37.5073 20.8781 37.4293 21.0859 37.313 21.2728C37.1966 21.4596 37.0441 21.6218 36.8644 21.75C36.5008 22.0054 36.0507 22.1093 35.6108 22.0391C35.1709 21.969 34.7763 21.7306 34.5118 21.375L31.9281 17.8333L29.3445 21.375C29.0799 21.7306 28.6853 21.969 28.2454 22.0391C27.8055 22.1093 27.3554 22.0054 26.9919 21.75C26.8121 21.6218 26.6596 21.4596 26.5433 21.2728C26.4269 21.0859 26.3489 20.8781 26.3138 20.6613C26.2786 20.4445 26.287 20.2229 26.3385 20.0093C26.39 19.7957 26.4836 19.5943 26.6138 19.4167L29.2184 15.875L25.0174 14.5208C24.8061 14.4549 24.6103 14.3476 24.4415 14.2054C24.2726 14.0632 24.1342 13.8889 24.0344 13.6928C23.9345 13.4967 23.8753 13.2828 23.8601 13.0636C23.845 12.8444 23.8742 12.6245 23.9461 12.4167C24.0103 12.2079 24.1162 12.0141 24.2576 11.8468C24.399 11.6795 24.5729 11.5422 24.7689 11.443C24.965 11.3439 25.1791 11.2849 25.3987 11.2696C25.6182 11.2544 25.8386 11.2831 26.0466 11.3542L30.2477 12.7083V8.33333C30.2477 7.89131 30.4247 7.46738 30.7399 7.15482C31.055 6.84226 31.4824 6.66667 31.9281 6.66667C32.3738 6.66667 32.8012 6.84226 33.1164 7.15482C33.4315 7.46738 33.6085 7.89131 33.6085 8.33333V12.7083L37.8096 11.3542C38.0177 11.2831 38.2381 11.2544 38.4576 11.2696C38.6771 11.2849 38.8913 11.3439 39.0873 11.443C39.2834 11.5422 39.4573 11.6795 39.5986 11.8468C39.74 12.0141 39.8459 12.2079 39.9101 12.4167C39.982 12.6245 40.0113 12.8444 39.9961 13.0636C39.9809 13.2828 39.9217 13.4967 39.8219 13.6928C39.722 13.8889 39.5836 14.0632 39.4148 14.2054C39.246 14.3476 39.0501 14.4549 38.8389 14.5208ZM21.0054 28.1875V8.33333C21.0054 6.1232 20.1202 4.00358 18.5445 2.44078C16.9688 0.877974 14.8316 0 12.6033 0C10.3749 0 8.23778 0.877974 6.66208 2.44078C5.08638 4.00358 4.20116 6.1232 4.20116 8.33333V28.1875C2.87375 29.3544 1.81245 30.7886 1.08803 32.3944C0.363607 34.0002 -0.00727716 35.7408 0.000108166 37.5C0.000108166 40.8152 1.32794 43.9946 3.69149 46.3388C6.05504 48.683 9.2607 50 12.6033 50C15.9458 50 19.1515 48.683 21.5151 46.3388C23.8786 43.9946 25.2064 40.8152 25.2064 37.5C25.2138 35.7408 24.8429 34.0002 24.1185 32.3944C23.3941 30.7886 22.3328 29.3544 21.0054 28.1875ZM12.6033 46.6667C10.1521 46.6667 7.80124 45.7009 6.06796 43.9818C4.33469 42.2627 3.36095 39.9311 3.36095 37.5C3.35411 36.121 3.66463 34.7587 4.26888 33.5168C4.87314 32.2749 5.75517 31.1861 6.84783 30.3333C7.06877 30.1772 7.24887 29.971 7.3731 29.7318C7.49734 29.4926 7.56211 29.2274 7.56201 28.9583V8.33333C7.56201 7.00725 8.09314 5.73548 9.03856 4.7978C9.98398 3.86012 11.2662 3.33333 12.6033 3.33333C13.9403 3.33333 15.2226 3.86012 16.168 4.7978C17.1134 5.73548 17.6445 7.00725 17.6445 8.33333V28.9583C17.647 29.2218 17.7108 29.4811 17.8311 29.716C17.9513 29.9509 18.1247 30.1551 18.3377 30.3125C19.8424 31.4938 20.9391 33.1104 21.4755 34.9379C22.0119 36.7655 21.9614 38.7132 21.331 40.511C20.7006 42.3088 19.5217 43.8673 17.9577 44.9704C16.3937 46.0735 14.5224 46.6663 12.6033 46.6667Z" fill="#030085"/>
</svg>
