<svg width="28" height="28" viewBox="0 0 28 28" fill="none" xmlns="http://www.w3.org/2000/svg">
<path d="M27.3333 12.6667H21.7733L26.0933 8.34669L24.2133 6.45335L18 12.6667H15.3333V10L21.5467 3.78669L19.6533 1.90669L15.3333 6.22669V0.666687H12.6667V6.22669L8.34666 1.90669L6.45332 3.78669L12.6667 10V12.6667H9.99999L3.78666 6.45335L1.90666 8.34669L6.22666 12.6667H0.666656V15.3334H6.22666L1.90666 19.6534L3.78666 21.5467L9.99999 15.3334H12.6667V18L6.45332 24.2134L8.34666 26.0934L12.6667 21.7734V27.3334H15.3333V21.7734L19.6533 26.0934L21.5467 24.2134L15.3333 18V15.3334H18L24.2133 21.5467L26.0933 19.6534L21.7733 15.3334H27.3333V12.6667Z" fill="#030085"/>
</svg>
